<mxfile host="app.diagrams.net" modified="2024-06-13T21:04:02.953Z" agent="Mozilla/5.0 (Windows NT 10.0; Win64; x64) AppleWebKit/537.36 (KHTML, like Gecko) Chrome/126.0.0.0 Safari/537.36" etag="t-Rpm80haRh_2hADO7kj" version="24.4.6" type="onedrive">
  <diagram id="C5RBs43oDa-KdzZeNtuy" name="Page-1">
    <mxGraphModel grid="1" page="1" gridSize="10" guides="1" tooltips="1" connect="1" arrows="1" fold="1" pageScale="1" pageWidth="827" pageHeight="1169" math="0" shadow="0">
      <root>
        <mxCell id="WIyWlLk6GJQsqaUBKTNV-0" />
        <mxCell id="WIyWlLk6GJQsqaUBKTNV-1" parent="WIyWlLk6GJQsqaUBKTNV-0" />
        <mxCell id="5Ky76i-Am9NvMuu6Rwp7-0" value="input(&quot;what stock did you purchase)" style="shape=parallelogram;perimeter=parallelogramPerimeter;whiteSpace=wrap;html=1;fixedSize=1;" vertex="1" parent="WIyWlLk6GJQsqaUBKTNV-1">
          <mxGeometry x="-607" y="10" width="120" height="60" as="geometry" />
        </mxCell>
        <mxCell id="5Ky76i-Am9NvMuu6Rwp7-1" value="input(amount of shares bought)" style="shape=parallelogram;perimeter=parallelogramPerimeter;whiteSpace=wrap;html=1;fixedSize=1;" vertex="1" parent="WIyWlLk6GJQsqaUBKTNV-1">
          <mxGeometry x="-607" y="100" width="120" height="60" as="geometry" />
        </mxCell>
        <mxCell id="5Ky76i-Am9NvMuu6Rwp7-2" value="input(price of share when bought)" style="shape=parallelogram;perimeter=parallelogramPerimeter;whiteSpace=wrap;html=1;fixedSize=1;" vertex="1" parent="WIyWlLk6GJQsqaUBKTNV-1">
          <mxGeometry x="-607" y="200" width="120" height="60" as="geometry" />
        </mxCell>
        <mxCell id="5Ky76i-Am9NvMuu6Rwp7-5" value="" style="endArrow=classic;html=1;rounded=0;exitX=0.5;exitY=1;exitDx=0;exitDy=0;" edge="1" parent="WIyWlLk6GJQsqaUBKTNV-1" source="5Ky76i-Am9NvMuu6Rwp7-0" target="5Ky76i-Am9NvMuu6Rwp7-1">
          <mxGeometry width="50" height="50" relative="1" as="geometry">
            <mxPoint x="-547" y="310" as="sourcePoint" />
            <mxPoint x="-537" y="100" as="targetPoint" />
          </mxGeometry>
        </mxCell>
        <mxCell id="5Ky76i-Am9NvMuu6Rwp7-6" value="" style="endArrow=classic;html=1;rounded=0;exitX=0.5;exitY=1;exitDx=0;exitDy=0;entryX=0.515;entryY=0.086;entryDx=0;entryDy=0;entryPerimeter=0;" edge="1" parent="WIyWlLk6GJQsqaUBKTNV-1" source="5Ky76i-Am9NvMuu6Rwp7-1" target="5Ky76i-Am9NvMuu6Rwp7-2">
          <mxGeometry width="50" height="50" relative="1" as="geometry">
            <mxPoint x="-567" y="200" as="sourcePoint" />
            <mxPoint x="-517" y="150" as="targetPoint" />
          </mxGeometry>
        </mxCell>
        <mxCell id="5Ky76i-Am9NvMuu6Rwp7-9" value="if shares_bought &amp;lt; 1000" style="rhombus;whiteSpace=wrap;html=1;" vertex="1" parent="WIyWlLk6GJQsqaUBKTNV-1">
          <mxGeometry x="-387" width="100" height="100" as="geometry" />
        </mxCell>
        <mxCell id="5Ky76i-Am9NvMuu6Rwp7-11" value="No" style="text;html=1;align=center;verticalAlign=middle;resizable=0;points=[];autosize=1;strokeColor=none;fillColor=none;" vertex="1" parent="WIyWlLk6GJQsqaUBKTNV-1">
          <mxGeometry x="-337" y="100" width="40" height="30" as="geometry" />
        </mxCell>
        <mxCell id="5Ky76i-Am9NvMuu6Rwp7-15" value="commission_bought = 100" style="rounded=0;whiteSpace=wrap;html=1;" vertex="1" parent="WIyWlLk6GJQsqaUBKTNV-1">
          <mxGeometry x="-227" y="20" width="120" height="60" as="geometry" />
        </mxCell>
        <mxCell id="5Ky76i-Am9NvMuu6Rwp7-18" value="commission_bought = 0" style="rounded=0;whiteSpace=wrap;html=1;" vertex="1" parent="WIyWlLk6GJQsqaUBKTNV-1">
          <mxGeometry x="-397" y="150" width="120" height="60" as="geometry" />
        </mxCell>
        <mxCell id="5Ky76i-Am9NvMuu6Rwp7-19" value="" style="endArrow=classic;html=1;rounded=0;entryX=0;entryY=0.5;entryDx=0;entryDy=0;exitX=1;exitY=0.5;exitDx=0;exitDy=0;" edge="1" parent="WIyWlLk6GJQsqaUBKTNV-1" source="5Ky76i-Am9NvMuu6Rwp7-9" target="5Ky76i-Am9NvMuu6Rwp7-15">
          <mxGeometry width="50" height="50" relative="1" as="geometry">
            <mxPoint x="-247" y="35" as="sourcePoint" />
            <mxPoint x="-307" y="100" as="targetPoint" />
          </mxGeometry>
        </mxCell>
        <mxCell id="5Ky76i-Am9NvMuu6Rwp7-20" value="" style="endArrow=classic;html=1;rounded=0;exitX=0.5;exitY=1;exitDx=0;exitDy=0;entryX=0.5;entryY=0;entryDx=0;entryDy=0;" edge="1" parent="WIyWlLk6GJQsqaUBKTNV-1" source="5Ky76i-Am9NvMuu6Rwp7-9" target="5Ky76i-Am9NvMuu6Rwp7-18">
          <mxGeometry width="50" height="50" relative="1" as="geometry">
            <mxPoint x="-327" y="150" as="sourcePoint" />
            <mxPoint x="-277" y="100" as="targetPoint" />
          </mxGeometry>
        </mxCell>
        <mxCell id="5Ky76i-Am9NvMuu6Rwp7-21" value="" style="endArrow=classic;html=1;rounded=0;exitX=1;exitY=0.5;exitDx=0;exitDy=0;entryX=0;entryY=0.5;entryDx=0;entryDy=0;" edge="1" parent="WIyWlLk6GJQsqaUBKTNV-1" source="5Ky76i-Am9NvMuu6Rwp7-57" target="5Ky76i-Am9NvMuu6Rwp7-9">
          <mxGeometry width="50" height="50" relative="1" as="geometry">
            <mxPoint x="-547.0000000000002" y="360" as="sourcePoint" />
            <mxPoint x="-487" y="490" as="targetPoint" />
            <Array as="points">
              <mxPoint x="-457" y="430" />
              <mxPoint x="-457" y="50" />
            </Array>
          </mxGeometry>
        </mxCell>
        <mxCell id="5Ky76i-Am9NvMuu6Rwp7-22" value="Start" style="ellipse;whiteSpace=wrap;html=1;" vertex="1" parent="WIyWlLk6GJQsqaUBKTNV-1">
          <mxGeometry x="-827" width="120" height="80" as="geometry" />
        </mxCell>
        <mxCell id="5Ky76i-Am9NvMuu6Rwp7-23" value="" style="endArrow=classic;html=1;rounded=0;exitX=1;exitY=0.5;exitDx=0;exitDy=0;entryX=0;entryY=0.5;entryDx=0;entryDy=0;" edge="1" parent="WIyWlLk6GJQsqaUBKTNV-1" source="5Ky76i-Am9NvMuu6Rwp7-22" target="5Ky76i-Am9NvMuu6Rwp7-0">
          <mxGeometry width="50" height="50" relative="1" as="geometry">
            <mxPoint x="-607" y="200" as="sourcePoint" />
            <mxPoint x="-557" y="150" as="targetPoint" />
          </mxGeometry>
        </mxCell>
        <mxCell id="5Ky76i-Am9NvMuu6Rwp7-24" value="If input &amp;lt;= 0" style="text;html=1;align=center;verticalAlign=middle;resizable=0;points=[];autosize=1;strokeColor=none;fillColor=none;" vertex="1" parent="WIyWlLk6GJQsqaUBKTNV-1">
          <mxGeometry x="-687" y="100" width="90" height="30" as="geometry" />
        </mxCell>
        <mxCell id="5Ky76i-Am9NvMuu6Rwp7-25" value="If input &amp;lt;= 0" style="text;html=1;align=center;verticalAlign=middle;resizable=0;points=[];autosize=1;strokeColor=none;fillColor=none;" vertex="1" parent="WIyWlLk6GJQsqaUBKTNV-1">
          <mxGeometry x="-687" y="200" width="90" height="30" as="geometry" />
        </mxCell>
        <mxCell id="5Ky76i-Am9NvMuu6Rwp7-26" value="" style="endArrow=classic;html=1;rounded=0;exitX=0.5;exitY=0;exitDx=0;exitDy=0;entryX=0.5;entryY=1;entryDx=0;entryDy=0;" edge="1" parent="WIyWlLk6GJQsqaUBKTNV-1" source="5Ky76i-Am9NvMuu6Rwp7-30" target="5Ky76i-Am9NvMuu6Rwp7-22">
          <mxGeometry width="50" height="50" relative="1" as="geometry">
            <mxPoint x="-607" y="200" as="sourcePoint" />
            <mxPoint x="-777" y="230" as="targetPoint" />
            <Array as="points" />
          </mxGeometry>
        </mxCell>
        <mxCell id="5Ky76i-Am9NvMuu6Rwp7-28" value="input &amp;gt; 0" style="text;html=1;align=center;verticalAlign=middle;resizable=0;points=[];autosize=1;strokeColor=none;fillColor=none;" vertex="1" parent="WIyWlLk6GJQsqaUBKTNV-1">
          <mxGeometry x="-547" y="360" width="70" height="30" as="geometry" />
        </mxCell>
        <mxCell id="5Ky76i-Am9NvMuu6Rwp7-29" value="input &amp;gt; 0" style="text;html=1;align=center;verticalAlign=middle;resizable=0;points=[];autosize=1;strokeColor=none;fillColor=none;" vertex="1" parent="WIyWlLk6GJQsqaUBKTNV-1">
          <mxGeometry x="-547" y="160" width="70" height="30" as="geometry" />
        </mxCell>
        <mxCell id="5Ky76i-Am9NvMuu6Rwp7-31" value="" style="endArrow=classic;html=1;rounded=0;exitX=0;exitY=0.5;exitDx=0;exitDy=0;entryX=0.5;entryY=1;entryDx=0;entryDy=0;" edge="1" parent="WIyWlLk6GJQsqaUBKTNV-1" source="5Ky76i-Am9NvMuu6Rwp7-2" target="5Ky76i-Am9NvMuu6Rwp7-30">
          <mxGeometry width="50" height="50" relative="1" as="geometry">
            <mxPoint x="-597" y="230" as="sourcePoint" />
            <mxPoint x="-767" y="80" as="targetPoint" />
            <Array as="points">
              <mxPoint x="-767" y="230" />
            </Array>
          </mxGeometry>
        </mxCell>
        <mxCell id="5Ky76i-Am9NvMuu6Rwp7-30" value="print(error)" style="shape=parallelogram;perimeter=parallelogramPerimeter;whiteSpace=wrap;html=1;fixedSize=1;" vertex="1" parent="WIyWlLk6GJQsqaUBKTNV-1">
          <mxGeometry x="-827" y="100" width="120" height="60" as="geometry" />
        </mxCell>
        <mxCell id="5Ky76i-Am9NvMuu6Rwp7-32" value="" style="endArrow=classic;html=1;rounded=0;exitX=0;exitY=0.5;exitDx=0;exitDy=0;entryX=1;entryY=0.5;entryDx=0;entryDy=0;" edge="1" parent="WIyWlLk6GJQsqaUBKTNV-1" source="5Ky76i-Am9NvMuu6Rwp7-1" target="5Ky76i-Am9NvMuu6Rwp7-30">
          <mxGeometry width="50" height="50" relative="1" as="geometry">
            <mxPoint x="-607" y="200" as="sourcePoint" />
            <mxPoint x="-557" y="150" as="targetPoint" />
          </mxGeometry>
        </mxCell>
        <mxCell id="5Ky76i-Am9NvMuu6Rwp7-35" value="total_bought = shares_bought * share_bought_price" style="rounded=0;whiteSpace=wrap;html=1;" vertex="1" parent="WIyWlLk6GJQsqaUBKTNV-1">
          <mxGeometry x="-227" y="150" width="120" height="60" as="geometry" />
        </mxCell>
        <mxCell id="5Ky76i-Am9NvMuu6Rwp7-36" value="" style="endArrow=classic;html=1;rounded=0;exitX=1;exitY=0.5;exitDx=0;exitDy=0;entryX=0;entryY=0.5;entryDx=0;entryDy=0;" edge="1" parent="WIyWlLk6GJQsqaUBKTNV-1" source="5Ky76i-Am9NvMuu6Rwp7-18" target="5Ky76i-Am9NvMuu6Rwp7-35">
          <mxGeometry width="50" height="50" relative="1" as="geometry">
            <mxPoint x="-347" y="250" as="sourcePoint" />
            <mxPoint x="-297" y="200" as="targetPoint" />
          </mxGeometry>
        </mxCell>
        <mxCell id="5Ky76i-Am9NvMuu6Rwp7-37" value="" style="endArrow=classic;html=1;rounded=0;exitX=0.5;exitY=1;exitDx=0;exitDy=0;entryX=0.5;entryY=0;entryDx=0;entryDy=0;" edge="1" parent="WIyWlLk6GJQsqaUBKTNV-1" source="5Ky76i-Am9NvMuu6Rwp7-15" target="5Ky76i-Am9NvMuu6Rwp7-35">
          <mxGeometry width="50" height="50" relative="1" as="geometry">
            <mxPoint x="-347" y="250" as="sourcePoint" />
            <mxPoint x="-297" y="200" as="targetPoint" />
          </mxGeometry>
        </mxCell>
        <mxCell id="5Ky76i-Am9NvMuu6Rwp7-56" value="input(amount of shares sold)" style="shape=parallelogram;perimeter=parallelogramPerimeter;whiteSpace=wrap;html=1;fixedSize=1;" vertex="1" parent="WIyWlLk6GJQsqaUBKTNV-1">
          <mxGeometry x="-607" y="300" width="120" height="60" as="geometry" />
        </mxCell>
        <mxCell id="5Ky76i-Am9NvMuu6Rwp7-65" value="" style="endArrow=classic;html=1;rounded=0;exitX=0.5;exitY=1;exitDx=0;exitDy=0;entryX=0.5;entryY=0;entryDx=0;entryDy=0;" edge="1" parent="WIyWlLk6GJQsqaUBKTNV-1" source="5Ky76i-Am9NvMuu6Rwp7-56" target="5Ky76i-Am9NvMuu6Rwp7-57">
          <mxGeometry width="50" height="50" relative="1" as="geometry">
            <mxPoint x="-727" y="710" as="sourcePoint" />
            <mxPoint x="-677" y="660" as="targetPoint" />
          </mxGeometry>
        </mxCell>
        <mxCell id="5Ky76i-Am9NvMuu6Rwp7-67" value="" style="endArrow=classic;html=1;rounded=0;exitX=0.5;exitY=1;exitDx=0;exitDy=0;entryX=0.5;entryY=0;entryDx=0;entryDy=0;" edge="1" parent="WIyWlLk6GJQsqaUBKTNV-1" target="5Ky76i-Am9NvMuu6Rwp7-57">
          <mxGeometry width="50" height="50" relative="1" as="geometry">
            <mxPoint x="-547.0000000000002" y="360" as="sourcePoint" />
            <mxPoint x="-547" y="510" as="targetPoint" />
          </mxGeometry>
        </mxCell>
        <mxCell id="5Ky76i-Am9NvMuu6Rwp7-57" value="input(price of shares when sold)" style="shape=parallelogram;perimeter=parallelogramPerimeter;whiteSpace=wrap;html=1;fixedSize=1;" vertex="1" parent="WIyWlLk6GJQsqaUBKTNV-1">
          <mxGeometry x="-607" y="400" width="120" height="60" as="geometry" />
        </mxCell>
        <mxCell id="5Ky76i-Am9NvMuu6Rwp7-68" value="" style="endArrow=classic;html=1;rounded=0;exitX=0.5;exitY=1;exitDx=0;exitDy=0;entryX=0.5;entryY=0;entryDx=0;entryDy=0;" edge="1" parent="WIyWlLk6GJQsqaUBKTNV-1" source="5Ky76i-Am9NvMuu6Rwp7-2" target="5Ky76i-Am9NvMuu6Rwp7-56">
          <mxGeometry width="50" height="50" relative="1" as="geometry">
            <mxPoint x="-527" y="360" as="sourcePoint" />
            <mxPoint x="-477" y="310" as="targetPoint" />
          </mxGeometry>
        </mxCell>
        <mxCell id="5Ky76i-Am9NvMuu6Rwp7-69" value="If input &amp;lt;= 0" style="text;html=1;align=center;verticalAlign=middle;resizable=0;points=[];autosize=1;strokeColor=none;fillColor=none;" vertex="1" parent="WIyWlLk6GJQsqaUBKTNV-1">
          <mxGeometry x="-687" y="300" width="90" height="30" as="geometry" />
        </mxCell>
        <mxCell id="5Ky76i-Am9NvMuu6Rwp7-70" value="" style="endArrow=classic;html=1;rounded=0;exitX=0;exitY=0.5;exitDx=0;exitDy=0;" edge="1" parent="WIyWlLk6GJQsqaUBKTNV-1">
          <mxGeometry width="50" height="50" relative="1" as="geometry">
            <mxPoint x="-597" y="330" as="sourcePoint" />
            <mxPoint x="-767" y="230" as="targetPoint" />
            <Array as="points">
              <mxPoint x="-767" y="330" />
            </Array>
          </mxGeometry>
        </mxCell>
        <mxCell id="5Ky76i-Am9NvMuu6Rwp7-71" value="If input &amp;lt;= 0" style="text;html=1;align=center;verticalAlign=middle;resizable=0;points=[];autosize=1;strokeColor=none;fillColor=none;" vertex="1" parent="WIyWlLk6GJQsqaUBKTNV-1">
          <mxGeometry x="-687" y="400" width="90" height="30" as="geometry" />
        </mxCell>
        <mxCell id="5Ky76i-Am9NvMuu6Rwp7-72" value="" style="endArrow=classic;html=1;rounded=0;exitX=0;exitY=0.5;exitDx=0;exitDy=0;" edge="1" parent="WIyWlLk6GJQsqaUBKTNV-1">
          <mxGeometry width="50" height="50" relative="1" as="geometry">
            <mxPoint x="-597" y="430" as="sourcePoint" />
            <mxPoint x="-767" y="330" as="targetPoint" />
            <Array as="points">
              <mxPoint x="-767" y="430" />
            </Array>
          </mxGeometry>
        </mxCell>
        <mxCell id="5Ky76i-Am9NvMuu6Rwp7-74" value="input &amp;gt; 0" style="text;html=1;align=center;verticalAlign=middle;resizable=0;points=[];autosize=1;strokeColor=none;fillColor=none;" vertex="1" parent="WIyWlLk6GJQsqaUBKTNV-1">
          <mxGeometry x="-547" y="260" width="70" height="30" as="geometry" />
        </mxCell>
        <mxCell id="5Ky76i-Am9NvMuu6Rwp7-75" value="input &amp;gt; 0" style="text;html=1;align=center;verticalAlign=middle;resizable=0;points=[];autosize=1;strokeColor=none;fillColor=none;" vertex="1" parent="WIyWlLk6GJQsqaUBKTNV-1">
          <mxGeometry x="-507" y="430" width="70" height="30" as="geometry" />
        </mxCell>
        <mxCell id="5Ky76i-Am9NvMuu6Rwp7-77" value="if shares_sold &amp;lt; 1000" style="rhombus;whiteSpace=wrap;html=1;" vertex="1" parent="WIyWlLk6GJQsqaUBKTNV-1">
          <mxGeometry x="-387" y="270" width="100" height="100" as="geometry" />
        </mxCell>
        <mxCell id="5Ky76i-Am9NvMuu6Rwp7-78" value="No" style="text;html=1;align=center;verticalAlign=middle;resizable=0;points=[];autosize=1;strokeColor=none;fillColor=none;" vertex="1" parent="WIyWlLk6GJQsqaUBKTNV-1">
          <mxGeometry x="-337" y="500" width="40" height="30" as="geometry" />
        </mxCell>
        <mxCell id="5Ky76i-Am9NvMuu6Rwp7-79" value="commission_sold = 100" style="rounded=0;whiteSpace=wrap;html=1;" vertex="1" parent="WIyWlLk6GJQsqaUBKTNV-1">
          <mxGeometry x="-227" y="290" width="120" height="60" as="geometry" />
        </mxCell>
        <mxCell id="5Ky76i-Am9NvMuu6Rwp7-104" style="edgeStyle=orthogonalEdgeStyle;rounded=0;orthogonalLoop=1;jettySize=auto;html=1;exitX=0.5;exitY=1;exitDx=0;exitDy=0;entryX=1;entryY=0.5;entryDx=0;entryDy=0;" edge="1" parent="WIyWlLk6GJQsqaUBKTNV-1" source="5Ky76i-Am9NvMuu6Rwp7-83" target="5Ky76i-Am9NvMuu6Rwp7-100">
          <mxGeometry relative="1" as="geometry">
            <Array as="points">
              <mxPoint x="-157" y="660" />
              <mxPoint x="-457" y="660" />
              <mxPoint x="-457" y="580" />
            </Array>
          </mxGeometry>
        </mxCell>
        <mxCell id="5Ky76i-Am9NvMuu6Rwp7-80" value="commission_sold = 0" style="rounded=0;whiteSpace=wrap;html=1;" vertex="1" parent="WIyWlLk6GJQsqaUBKTNV-1">
          <mxGeometry x="-397" y="550" width="120" height="60" as="geometry" />
        </mxCell>
        <mxCell id="5Ky76i-Am9NvMuu6Rwp7-81" value="" style="endArrow=classic;html=1;rounded=0;entryX=0;entryY=0.5;entryDx=0;entryDy=0;exitX=1;exitY=0.5;exitDx=0;exitDy=0;" edge="1" parent="WIyWlLk6GJQsqaUBKTNV-1" source="5Ky76i-Am9NvMuu6Rwp7-77" target="5Ky76i-Am9NvMuu6Rwp7-79">
          <mxGeometry width="50" height="50" relative="1" as="geometry">
            <mxPoint x="-247" y="305" as="sourcePoint" />
            <mxPoint x="-307" y="370" as="targetPoint" />
          </mxGeometry>
        </mxCell>
        <mxCell id="5Ky76i-Am9NvMuu6Rwp7-82" value="" style="endArrow=classic;html=1;rounded=0;exitX=0.5;exitY=1;exitDx=0;exitDy=0;entryX=0.5;entryY=0;entryDx=0;entryDy=0;" edge="1" parent="WIyWlLk6GJQsqaUBKTNV-1" target="5Ky76i-Am9NvMuu6Rwp7-80">
          <mxGeometry width="50" height="50" relative="1" as="geometry">
            <mxPoint x="-337" y="500" as="sourcePoint" />
            <mxPoint x="-277" y="500" as="targetPoint" />
          </mxGeometry>
        </mxCell>
        <mxCell id="5Ky76i-Am9NvMuu6Rwp7-83" value="total_sold = shares_sold * shares_sold_price" style="rounded=0;whiteSpace=wrap;html=1;" vertex="1" parent="WIyWlLk6GJQsqaUBKTNV-1">
          <mxGeometry x="-217" y="550" width="120" height="60" as="geometry" />
        </mxCell>
        <mxCell id="5Ky76i-Am9NvMuu6Rwp7-84" value="" style="endArrow=classic;html=1;rounded=0;exitX=1;exitY=0.5;exitDx=0;exitDy=0;entryX=0;entryY=0.5;entryDx=0;entryDy=0;" edge="1" parent="WIyWlLk6GJQsqaUBKTNV-1" source="5Ky76i-Am9NvMuu6Rwp7-80" target="5Ky76i-Am9NvMuu6Rwp7-83">
          <mxGeometry width="50" height="50" relative="1" as="geometry">
            <mxPoint x="-347" y="650" as="sourcePoint" />
            <mxPoint x="-297" y="600" as="targetPoint" />
          </mxGeometry>
        </mxCell>
        <mxCell id="5Ky76i-Am9NvMuu6Rwp7-86" value="if shares_sold &amp;gt;= 1000, and &amp;lt;=2000" style="rhombus;whiteSpace=wrap;html=1;" vertex="1" parent="WIyWlLk6GJQsqaUBKTNV-1">
          <mxGeometry x="-387" y="400" width="100" height="100" as="geometry" />
        </mxCell>
        <mxCell id="5Ky76i-Am9NvMuu6Rwp7-87" value="commission_sold = 50" style="rounded=0;whiteSpace=wrap;html=1;" vertex="1" parent="WIyWlLk6GJQsqaUBKTNV-1">
          <mxGeometry x="-227" y="420" width="120" height="60" as="geometry" />
        </mxCell>
        <mxCell id="5Ky76i-Am9NvMuu6Rwp7-88" value="" style="endArrow=classic;html=1;rounded=0;entryX=0;entryY=0.5;entryDx=0;entryDy=0;exitX=1;exitY=0.5;exitDx=0;exitDy=0;" edge="1" parent="WIyWlLk6GJQsqaUBKTNV-1" source="5Ky76i-Am9NvMuu6Rwp7-86" target="5Ky76i-Am9NvMuu6Rwp7-87">
          <mxGeometry width="50" height="50" relative="1" as="geometry">
            <mxPoint x="-247" y="435" as="sourcePoint" />
            <mxPoint x="-307" y="500" as="targetPoint" />
          </mxGeometry>
        </mxCell>
        <mxCell id="5Ky76i-Am9NvMuu6Rwp7-89" value="" style="endArrow=classic;html=1;rounded=0;exitX=0.5;exitY=1;exitDx=0;exitDy=0;entryX=0.5;entryY=0;entryDx=0;entryDy=0;" edge="1" parent="WIyWlLk6GJQsqaUBKTNV-1" source="5Ky76i-Am9NvMuu6Rwp7-35" target="5Ky76i-Am9NvMuu6Rwp7-77">
          <mxGeometry width="50" height="50" relative="1" as="geometry">
            <mxPoint x="-327" y="500" as="sourcePoint" />
            <mxPoint x="-277" y="450" as="targetPoint" />
            <Array as="points">
              <mxPoint x="-167" y="240" />
              <mxPoint x="-337" y="240" />
            </Array>
          </mxGeometry>
        </mxCell>
        <mxCell id="5Ky76i-Am9NvMuu6Rwp7-92" value="" style="endArrow=classic;html=1;rounded=0;exitX=0.5;exitY=1;exitDx=0;exitDy=0;entryX=0.5;entryY=0;entryDx=0;entryDy=0;" edge="1" parent="WIyWlLk6GJQsqaUBKTNV-1" source="5Ky76i-Am9NvMuu6Rwp7-77" target="5Ky76i-Am9NvMuu6Rwp7-86">
          <mxGeometry width="50" height="50" relative="1" as="geometry">
            <mxPoint x="-327" y="500" as="sourcePoint" />
            <mxPoint x="-277" y="450" as="targetPoint" />
          </mxGeometry>
        </mxCell>
        <mxCell id="5Ky76i-Am9NvMuu6Rwp7-93" value="" style="endArrow=classic;html=1;rounded=0;exitX=1;exitY=0.5;exitDx=0;exitDy=0;entryX=1;entryY=0.5;entryDx=0;entryDy=0;" edge="1" parent="WIyWlLk6GJQsqaUBKTNV-1" source="5Ky76i-Am9NvMuu6Rwp7-79" target="5Ky76i-Am9NvMuu6Rwp7-83">
          <mxGeometry width="50" height="50" relative="1" as="geometry">
            <mxPoint x="-327" y="500" as="sourcePoint" />
            <mxPoint x="-35.31568667763156" y="580" as="targetPoint" />
            <Array as="points">
              <mxPoint x="-37" y="320" />
              <mxPoint x="-37" y="580" />
            </Array>
          </mxGeometry>
        </mxCell>
        <mxCell id="5Ky76i-Am9NvMuu6Rwp7-94" value="" style="endArrow=classic;html=1;rounded=0;exitX=1;exitY=0.5;exitDx=0;exitDy=0;" edge="1" parent="WIyWlLk6GJQsqaUBKTNV-1" source="5Ky76i-Am9NvMuu6Rwp7-87">
          <mxGeometry width="50" height="50" relative="1" as="geometry">
            <mxPoint x="-307" y="400" as="sourcePoint" />
            <mxPoint x="-37" y="450" as="targetPoint" />
          </mxGeometry>
        </mxCell>
        <mxCell id="5Ky76i-Am9NvMuu6Rwp7-95" value="Yes" style="text;html=1;align=center;verticalAlign=middle;resizable=0;points=[];autosize=1;strokeColor=none;fillColor=none;" vertex="1" parent="WIyWlLk6GJQsqaUBKTNV-1">
          <mxGeometry x="-287" y="20" width="40" height="30" as="geometry" />
        </mxCell>
        <mxCell id="5Ky76i-Am9NvMuu6Rwp7-96" value="Yes" style="text;html=1;align=center;verticalAlign=middle;resizable=0;points=[];autosize=1;strokeColor=none;fillColor=none;" vertex="1" parent="WIyWlLk6GJQsqaUBKTNV-1">
          <mxGeometry x="-287" y="290" width="40" height="30" as="geometry" />
        </mxCell>
        <mxCell id="5Ky76i-Am9NvMuu6Rwp7-97" value="Yes" style="text;html=1;align=center;verticalAlign=middle;resizable=0;points=[];autosize=1;strokeColor=none;fillColor=none;" vertex="1" parent="WIyWlLk6GJQsqaUBKTNV-1">
          <mxGeometry x="-287" y="415" width="40" height="30" as="geometry" />
        </mxCell>
        <mxCell id="5Ky76i-Am9NvMuu6Rwp7-103" style="edgeStyle=orthogonalEdgeStyle;rounded=0;orthogonalLoop=1;jettySize=auto;html=1;exitX=0.5;exitY=1;exitDx=0;exitDy=0;entryX=0.5;entryY=0;entryDx=0;entryDy=0;" edge="1" parent="WIyWlLk6GJQsqaUBKTNV-1" source="5Ky76i-Am9NvMuu6Rwp7-100" target="5Ky76i-Am9NvMuu6Rwp7-101">
          <mxGeometry relative="1" as="geometry" />
        </mxCell>
        <mxCell id="5Ky76i-Am9NvMuu6Rwp7-100" value="&lt;div&gt;print(stock_name)&lt;/div&gt;print(total_bought)&lt;div&gt;print(commission_bought)&lt;/div&gt;" style="shape=parallelogram;perimeter=parallelogramPerimeter;whiteSpace=wrap;html=1;fixedSize=1;" vertex="1" parent="WIyWlLk6GJQsqaUBKTNV-1">
          <mxGeometry x="-657" y="550" width="120" height="60" as="geometry" />
        </mxCell>
        <mxCell id="5Ky76i-Am9NvMuu6Rwp7-109" style="edgeStyle=orthogonalEdgeStyle;rounded=0;orthogonalLoop=1;jettySize=auto;html=1;exitX=0.5;exitY=1;exitDx=0;exitDy=0;entryX=0.5;entryY=0;entryDx=0;entryDy=0;" edge="1" parent="WIyWlLk6GJQsqaUBKTNV-1" source="5Ky76i-Am9NvMuu6Rwp7-101" target="5Ky76i-Am9NvMuu6Rwp7-106">
          <mxGeometry relative="1" as="geometry" />
        </mxCell>
        <mxCell id="5Ky76i-Am9NvMuu6Rwp7-101" value="print(total_sold)&lt;div&gt;print(commission_soldt)&lt;/div&gt;" style="shape=parallelogram;perimeter=parallelogramPerimeter;whiteSpace=wrap;html=1;fixedSize=1;" vertex="1" parent="WIyWlLk6GJQsqaUBKTNV-1">
          <mxGeometry x="-657" y="660" width="120" height="60" as="geometry" />
        </mxCell>
        <mxCell id="5Ky76i-Am9NvMuu6Rwp7-110" style="edgeStyle=orthogonalEdgeStyle;rounded=0;orthogonalLoop=1;jettySize=auto;html=1;exitX=1;exitY=0.5;exitDx=0;exitDy=0;entryX=0;entryY=0.5;entryDx=0;entryDy=0;" edge="1" parent="WIyWlLk6GJQsqaUBKTNV-1" source="5Ky76i-Am9NvMuu6Rwp7-106" target="5Ky76i-Am9NvMuu6Rwp7-107">
          <mxGeometry relative="1" as="geometry" />
        </mxCell>
        <mxCell id="5Ky76i-Am9NvMuu6Rwp7-106" value="profit_total = total_sold - total_bought - commission_bought - commission_sold" style="rounded=0;whiteSpace=wrap;html=1;" vertex="1" parent="WIyWlLk6GJQsqaUBKTNV-1">
          <mxGeometry x="-672" y="760" width="150" height="90" as="geometry" />
        </mxCell>
        <mxCell id="5Ky76i-Am9NvMuu6Rwp7-111" style="edgeStyle=orthogonalEdgeStyle;rounded=0;orthogonalLoop=1;jettySize=auto;html=1;exitX=1;exitY=0.5;exitDx=0;exitDy=0;entryX=0;entryY=0.5;entryDx=0;entryDy=0;" edge="1" parent="WIyWlLk6GJQsqaUBKTNV-1" source="5Ky76i-Am9NvMuu6Rwp7-107" target="5Ky76i-Am9NvMuu6Rwp7-108">
          <mxGeometry relative="1" as="geometry" />
        </mxCell>
        <mxCell id="5Ky76i-Am9NvMuu6Rwp7-107" value="print(profit_total)" style="shape=parallelogram;perimeter=parallelogramPerimeter;whiteSpace=wrap;html=1;fixedSize=1;" vertex="1" parent="WIyWlLk6GJQsqaUBKTNV-1">
          <mxGeometry x="-467" y="775" width="120" height="60" as="geometry" />
        </mxCell>
        <mxCell id="5Ky76i-Am9NvMuu6Rwp7-108" value="End" style="ellipse;whiteSpace=wrap;html=1;" vertex="1" parent="WIyWlLk6GJQsqaUBKTNV-1">
          <mxGeometry x="-297" y="765" width="120" height="80" as="geometry" />
        </mxCell>
        <mxCell id="5Ky76i-Am9NvMuu6Rwp7-112" value="No" style="text;html=1;align=center;verticalAlign=middle;resizable=0;points=[];autosize=1;strokeColor=none;fillColor=none;" vertex="1" parent="WIyWlLk6GJQsqaUBKTNV-1">
          <mxGeometry x="-337" y="358" width="40" height="30" as="geometry" />
        </mxCell>
      </root>
    </mxGraphModel>
  </diagram>
</mxfile>
